<?xml version="1.0" encoding="UTF-8" standalone="no" ?>
<!DOCTYPE svg PUBLIC "-//W3C//DTD SVG 1.1//EN" "http://www.w3.org/Graphics/SVG/1.1/DTD/svg11.dtd">
<svg xmlns="http://www.w3.org/2000/svg" xmlns:xlink="http://www.w3.org/1999/xlink" version="1.1" width="400" height="400" viewBox="0 0 400 400" xml:space="preserve">
<desc>Created with Fabric.js 3.6.2</desc>
<defs>
</defs>
<g transform="matrix(6.25 0 0 6.25 179.47 208.78)" id="discord_group_forum_message"  >
<path style="stroke: none; stroke-width: 1; stroke-dasharray: none; stroke-linecap: butt; stroke-dashoffset: 0; stroke-linejoin: miter; stroke-miterlimit: 4; fill: #3e323e; fill-rule: nonzero; opacity: 1;"  transform=" translate(-12.72, -17.41)" d="M 9.82 17.41 a 3.1 3.1 0 0 0 2.9 3.26 a 3.1 3.1 0 0 0 2.89 -3.26 a 3.11 3.11 0 0 0 -2.89 -3.27 A 3.11 3.11 0 0 0 9.82 17.41 Z m 3.79 0 c 0 0.68 -0.41 1.26 -0.89 1.26 s -0.9 -0.58 -0.9 -1.26 s 0.41 -1.27 0.9 -1.27 S 13.61 16.72 13.61 17.41 Z" stroke-linecap="round" />
</g>
<g transform="matrix(6.25 0 0 6.25 220.53 208.78)" id="discord_group_forum_message"  >
<path style="stroke: none; stroke-width: 1; stroke-dasharray: none; stroke-linecap: butt; stroke-dashoffset: 0; stroke-linejoin: miter; stroke-miterlimit: 4; fill: #3e323e; fill-rule: nonzero; opacity: 1;"  transform=" translate(-19.28, -17.41)" d="M 19.28 14.14 a 3.11 3.11 0 0 0 -2.89 3.27 a 3.1 3.1 0 0 0 2.89 3.26 a 3.1 3.1 0 0 0 2.9 -3.26 A 3.11 3.11 0 0 0 19.28 14.14 Z m 0 4.53 c -0.48 0 -0.89 -0.58 -0.89 -1.26 s 0.41 -1.27 0.89 -1.27 s 0.9 0.58 0.9 1.27 S 19.77 18.67 19.28 18.67 Z" stroke-linecap="round" />
</g>
<g transform="matrix(6.25 0 0 6.25 200.31 200.47)" id="discord_group_forum_message"  >
<path style="stroke: none; stroke-width: 1; stroke-dasharray: none; stroke-linecap: butt; stroke-dashoffset: 0; stroke-linejoin: miter; stroke-miterlimit: 4; fill: #3e323e; fill-rule: nonzero; opacity: 1;"  transform=" translate(-16.05, -16.08)" d="M 26.63 10.53 l -0.07 -0.09 s 0 -0.07 0 -0.1 a 12.15 12.15 0 0 0 -6.8 -4.15 a 1 1 0 1 0 -0.48 1.94 a 10.19 10.19 0 0 1 5.65 3.39 A 24.87 24.87 0 0 1 27 21.33 a 10 10 0 0 1 -5 2.52 v -0.43 s 0 -0.05 0 -0.08 a 13.48 13.48 0 0 0 3.43 -1.95 a 1 1 0 0 0 -1.25 -1.57 A 12.83 12.83 0 0 1 16 22.42 a 12.83 12.83 0 0 1 -8.11 -2.6 a 1 1 0 0 0 -1.25 1.57 a 13.36 13.36 0 0 0 3.41 1.95 v 0.51 a 10 10 0 0 1 -5 -2.52 a 24.87 24.87 0 0 1 2.09 -9.81 a 10.19 10.19 0 0 1 5.65 -3.39 a 1 1 0 0 0 -0.48 -1.94 a 12.15 12.15 0 0 0 -6.8 4.15 s 0 0.07 0 0.1 l -0.07 0.09 c -1.94 4 -2.16 7.65 -2.37 11.14 a 1 1 0 0 0 0.29 0.77 A 12 12 0 0 0 11 26 h 0 a 1 1 0 0 0 0.7 -0.29 a 1 1 0 0 0 0.3 -0.71 V 24 A 17.56 17.56 0 0 0 20 24 v 1 a 1 1 0 0 0 0.3 0.71 A 1 1 0 0 0 21 26 h 0 a 12 12 0 0 0 7.74 -3.51 a 1 1 0 0 0 0.29 -0.77 C 28.79 18.18 28.57 14.57 26.63 10.53 Z" stroke-linecap="round" />
</g>
<g transform="matrix(6.25 0 0 6.25 200 166.01)" id="discord_group_forum_message"  >
<path style="stroke: none; stroke-width: 1; stroke-dasharray: none; stroke-linecap: butt; stroke-dashoffset: 0; stroke-linejoin: miter; stroke-miterlimit: 4; fill: #3e323e; fill-rule: nonzero; opacity: 1;"  transform=" translate(-16, -10.56)" d="M 23.49 11.72 a 1 1 0 0 0 -0.43 -1.35 A 15.47 15.47 0 0 0 16 8.87 a 15.47 15.47 0 0 0 -7.06 1.5 a 1 1 0 0 0 -0.43 1.35 a 1 1 0 0 0 1.35 0.42 A 13.55 13.55 0 0 1 16 10.87 a 13.55 13.55 0 0 1 6.14 1.27 a 1 1 0 0 0 0.46 0.12 A 1 1 0 0 0 23.49 11.72 Z" stroke-linecap="round" />
</g>
</svg>