<?xml version="1.0" encoding="UTF-8" standalone="no" ?>
<!DOCTYPE svg PUBLIC "-//W3C//DTD SVG 1.1//EN" "http://www.w3.org/Graphics/SVG/1.1/DTD/svg11.dtd">
<svg xmlns="http://www.w3.org/2000/svg" xmlns:xlink="http://www.w3.org/1999/xlink" version="1.1" width="400" height="400" viewBox="0 0 400 400" xml:space="preserve">
<desc>Created with Fabric.js 3.6.2</desc>
<defs>
</defs>
<g transform="matrix(0.46 0 0 0.46 200 200)" id="path2451"  >
<path style="stroke: #3e323e; stroke-width: 30.65500069; stroke-dasharray: none; stroke-linecap: butt; stroke-dashoffset: 0; stroke-linejoin: miter; stroke-miterlimit: 4; fill: none; fill-rule: nonzero; opacity: 1;"  transform=" translate(-365.02, -311.06)" d="M 569.374 461.472 L 569.374 160.658 L 160.658 160.658 L 160.658 461.472 L 569.374 461.472 z" stroke-linecap="round" />
</g>
<g transform="matrix(0.46 0 0 0.46 33.85 58.4)" id="path2453"  >
<path style="stroke: #3e323e; stroke-width: 30.65500069; stroke-dasharray: none; stroke-linecap: butt; stroke-dashoffset: 0; stroke-linejoin: miter; stroke-miterlimit: 4; fill: none; fill-rule: nonzero; opacity: 1;"  transform=" translate(0, 0)" d="" stroke-linecap="round" />
</g>
<g transform="matrix(0.46 0 0 0.46 200.24 176.18)" id="path2455"  >
<path style="stroke: #3e323e; stroke-width: 30.65500069; stroke-dasharray: none; stroke-linecap: butt; stroke-dashoffset: 0; stroke-linejoin: miter; stroke-miterlimit: 4; fill: none; fill-rule: nonzero; opacity: 1;"  transform=" translate(-365.54, -258.74)" d="M 164.46 164.49 L 340.78 343.158 C 353.849 356.328 377.63 356.172 390.423 343.278 L 566.622 165.928" stroke-linecap="round" />
</g>
<g transform="matrix(0.46 0 0 0.46 142.21 232.52)" id="path2457"  >
<path style="stroke: #3e323e; stroke-width: 30.65500069; stroke-dasharray: none; stroke-linecap: butt; stroke-dashoffset: 0; stroke-linejoin: miter; stroke-miterlimit: 4; fill: none; fill-rule: nonzero; opacity: 1;"  transform=" translate(-238.06, -382.51)" d="M 170.515 451.566 L 305.61 313.46" stroke-linecap="round" />
</g>
<g transform="matrix(0.46 0 0 0.46 257.91 232.6)" id="path2459"  >
<path style="stroke: #3e323e; stroke-width: 30.65500069; stroke-dasharray: none; stroke-linecap: butt; stroke-dashoffset: 0; stroke-linejoin: miter; stroke-miterlimit: 4; fill: none; fill-rule: nonzero; opacity: 1;"  transform=" translate(-492.24, -382.67)" d="M 557.968 449.974 L 426.515 315.375" stroke-linecap="round" />
</g>
</svg>