<?xml version="1.0" encoding="UTF-8" standalone="no" ?>
<!DOCTYPE svg PUBLIC "-//W3C//DTD SVG 1.1//EN" "http://www.w3.org/Graphics/SVG/1.1/DTD/svg11.dtd">
<svg xmlns="http://www.w3.org/2000/svg" xmlns:xlink="http://www.w3.org/1999/xlink" version="1.1" width="400" height="400" viewBox="0 0 400 400" xml:space="preserve">
<desc>Created with Fabric.js 3.6.2</desc>
<defs>
</defs>
<g transform="matrix(7.65 0 0 7.65 200 200)" id="github_coding_dev_developer"  >
<path style="stroke: none; stroke-width: 1; stroke-dasharray: none; stroke-linecap: butt; stroke-dashoffset: 0; stroke-linejoin: miter; stroke-miterlimit: 4; fill: #3e323e; fill-rule: nonzero; opacity: 1;"  transform=" translate(-16.07, -15.8)" d="M 16 3 a 13 13 0 0 0 -3.46 25.53 a 1 1 0 1 0 0.53 -1.92 a 11 11 0 1 1 7 -0.4 a 15.85 15.85 0 0 0 -0.3 -3.92 A 6.27 6.27 0 0 0 24.68 16 a 6.42 6.42 0 0 0 -1.05 -3.87 a 7.09 7.09 0 0 0 -0.4 -3.36 a 1 1 0 0 0 -1.1 -0.67 a 8 8 0 0 0 -3.37 1.28 A 11.35 11.35 0 0 0 16 9 a 13.09 13.09 0 0 0 -3 0.43 A 5.74 5.74 0 0 0 9.62 8.25 a 1 1 0 0 0 -1 0.66 a 7.06 7.06 0 0 0 -0.37 3.19 A 7.15 7.15 0 0 0 7.2 16 a 6.66 6.66 0 0 0 5 6.28 a 7.43 7.43 0 0 0 -0.15 0.79 c -1 0.06 -1.58 -0.55 -2.32 -1.48 a 3.45 3.45 0 0 0 -1.94 -1.53 a 1 1 0 0 0 -1.15 0.76 A 1 1 0 0 0 7.35 22 c 0.16 0 0.55 0.52 0.77 0.81 a 4.74 4.74 0 0 0 3.75 2.25 a 4.83 4.83 0 0 0 1.3 -0.18 h 0 a 1 1 0 0 0 0.29 -0.14 l 0 0 a 0.72 0.72 0 0 0 0.18 -0.21 a 0.34 0.34 0 0 0 0.08 -0.09 a 0.85 0.85 0 0 0 0.06 -0.17 a 1.52 1.52 0 0 0 0.06 -0.2 v 0 a 4.11 4.11 0 0 1 0.46 -1.91 a 1 1 0 0 0 -0.76 -1.65 A 4.6 4.6 0 0 1 9.2 16 a 4.84 4.84 0 0 1 0.87 -3 a 1 1 0 0 0 0.24 -0.83 a 5 5 0 0 1 0 -1.85 a 3.59 3.59 0 0 1 1.74 0.92 a 1 1 0 0 0 1 0.23 A 12.49 12.49 0 0 1 16 11 a 9.91 9.91 0 0 1 2.65 0.43 a 1 1 0 0 0 1 -0.18 a 5 5 0 0 1 2 -1 a 4.11 4.11 0 0 1 0 1.91 a 1.05 1.05 0 0 0 0.32 1 A 4 4 0 0 1 22.68 16 a 4.29 4.29 0 0 1 -4.41 4.46 a 1 1 0 0 0 -0.94 0.65 a 1 1 0 0 0 0.28 1.11 c 0.59 0.51 0.5 4 0.47 5.36 a 1 1 0 0 0 0.38 0.81 a 1 1 0 0 0 0.62 0.21 a 1.07 1.07 0 0 0 0.25 0 A 13 13 0 0 0 16 3 Z" stroke-linecap="round" />
</g>
</svg>